<svg viewBox="0 0 740 136" xmlns="http://www.w3.org/2000/svg" fill-rule="evenodd" clip-rule="evenodd" stroke-linejoin="round" stroke-miterlimit="1.414"><path d="M71.598 85.917c-.83-.284-2.735-1.55-3.238 0 .72.149 2.668.891 3.238 0zM58.284 86.637c.978-.224 2.856.457 3.239-.36-.902-.826-2.753-.973-3.239.36zM71.958 95.995c.111-.85 1.25-.668 1.08-1.801-1.017-.263-2.13 1.183-1.08 1.801zM63.323 109.67c-.263.382-1.083.042-1.799.719-.63-1.412-1.706.638-2.52-1.079-.404 1.134-.034.816 0 2.16 1.101.26 1.313-.369 2.16-.362.392.362.835 2.479 1.079 1.801.056-.425-.06-1.025.361-1.08v1.08c.916-.042 1.851-.069 1.799-1.08-.874-.207.168-2.326-1.08-2.159z"/><path d="M69.08 110.03c-.41 2.098-1.628-.437-2.88 0 .237 2.006-1.345.736-1.439 0 .296 1.016-.508.93-.359 1.8.707-.108.713.483 1.079.72.416-1.117 1.698.069 2.16-1.442-.021.622.276.922.718 1.078.202-1.041.561.555 1.079.364-.299-1.158-.306-.748.361-1.442-.593-.002-.2-.998-.719-1.078z"/><path d="M128.459 51.368c1.487-.358 2.4.035 3.96-.719-.786.067-1.148-.296-1.081-1.08.634-.205-2.838-.161-3.237-2.161 1.024.453 1.828.053 2.159-1.078-1.608-.503-1.91-.914-2.52-1.799-.384 1.57-1.963-.21-2.518 0 .234-1.311-.243-1.916-.719-2.519.844.37 2.183 2.11 2.878 1.439-1.269-.523-.602-1.911-1.08-2.517 1.655-.746.095-3.029.128-4.141-3.495.338-2.704-1.137-6.607.178-.194-1.872.693-2.665.721-4.316-1.698-.491-2.087-.451-2.159-1.441-.147.453-.463.736-1.079.721-.054-.424.062-1.023-.36-1.081.092 1.509-1.728-.117-1.799-.718 1.262.375 2.01 1.017 3.239.361-2.075-.409-.077-.418 0-1.443-.119-1.56-1.478-1.878-2.519-2.519 1.213-.346 2.458 1.102 3.237 0-.791-.286-1.434-.724-1.437-1.798.222.105 1.386.894 1.437 0-2.802-1.382-4.916-3.756-4.677-7.198-2.229 2.144-4.198-.2-6.117-1.801-1.091.113-1.286 1.115-2.88.722-.452-2.307-1.383-4.138-2.517-5.757-6.017.469-9.986-3.178-12.957-6.839C86.661 4.73 81.991.218 76.998.265c-2.79.025-8.732 1.045-8.753 1.045C65.55 1.376 62.387 0 58.287 0 51.806 0 48.06 2.389 42.093 4.223c.424.175.815.384 1.078.72-.919.279-1.654-1.409-2.159-.36.217.733-1.619 1.313-1.799 2.157h-1.439c.051-.423.641-.815 0-1.078-.598 1.856-5.108 4.15-3.599 4.678-3.064.834-3.449 2.885-5.757 3.6-1.511.467-4.562-.091-2.162 1.079-2.19 2.488-1.615 2.485-5.037 3.599-2.455.451-3.897 3.334-5.757 3.238 1.086.437-.192 1.438-.722 1.438-.055-.421.062-1.02-.359-1.08-.734.961-1.395 3.461-2.518 2.881-.265 3.033-.152 6.176-3.599 5.036.525 1.848-2.015.628-2.16 1.804 2.164-.036 2.069 4.416.72 6.117 1.645-1.122.175.027.361 1.077.706.107.712-.481 1.078-.718v1.802c-.853.362-3.403.892-2.88 1.437.457-.489 1.765-.557 1.801.36-.899-.713-1.597.544-2.159.36.738.648-1.094 1.766-1.081 2.879-.288 1.25.535 1.384.359 2.519-.02.461-.46.498-.359 1.079-5.386.974-4.368 7.129-2.159 10.797.052-.784.907-.773 1.799-.719-.255 2.379 1.328.783 1.441 2.52-1.575.225-2.754.844-3.24 2.157C.066 62.736-.24 67.733.436 67.658c.746.814 1.95.621 2.429 1.704.277.807-2.799.009-1.44.717 1.445-.125 2.633.008 2.878 1.081-.308 3.005-1.801 4.484-1.799 7.199.011 8.625 7.054 11.076 12.957 14.394-.912 1.127-.75 3.33-2.16 3.958 3.248 2.593-3.142 4.079-2.159 7.918 2.607 2.791 6.963 3.832 10.797 5.398-.107.221-.897 1.385 0 1.441 2.474 4.226 3.694 5.075 5.397 5.756.147.866 1.417-.983 2.879-1.438.081.678-.406.793-.361 1.438.861.219 2.611-.453 2.879.361 0 0 10.364 15.011 25.552 16.913 1.073.201 2.651-.948 3.239-1.799-.777-1.088-.303-1.088-1.079 0-.052-.661.391-1.724.56-2.288.183-.09.393-.11.651-.01.285 1.277 3.744 2.756.828 3.85.516-1.015.54-1.835.07-2.46-.351 1.764-.729 2.567-2.296 2.995 2.172-.123 7.269.78 9.018-.086-.754-.115-.732-2.178.309-1.865-.681 2.323 2.164-.472 1.739 1.75 1.685-.732 1.522-1.554 2.884.251.977-.9.267-2.822 1.093-2.523.165.748 1.179 1.157 1.136 1.987.493-.439 13.042-2.752 23.904-13.445 1.487.14 2.259-.431 3.648-.391 2.952-4.246 10.798-3.596 10.797-10.797 3.015-3.103 5.042-7.191 5.757-12.595.929.27-.264 2.663 1.08 2.521.142-1.703-.115-3.003-.36-4.318 1.483-.322 2.011.085 1.08-1.442 1.017-.302 2.22-.417 3.237-.719-.235-1.204-1.118-1.76-1.438-2.878 1.045-1.332 2.293-1.913 3.959-1.799-.59-1.759-1.648-1.798-2.984-3.277 1.43-3.115 5.423-4.789 6.761-7.435 1.096 1.09-.168-3.655 1.262-4.765.076.436 1.234-5.224 1.078-5.758-1.291-11.541-3.699-13.604-5.759-15.834zm-87.146 60.968c-2.418-.747-4.822-2.802-7.5-6.983-.015-1.254.201-3.423-.72-1.803.465-2.316-.283-2.358-.72-4.316-1.226-.268-.594 1.327-1.44 1.438.469-1.728-.021-1.5-.72-1.798.485-.236.669-.77.72-1.439-3.015-5.669-5.31-17.505-.72-25.193-.454-.878-.196-2.925.858-4.356 0 0 .525-.524.222-1.763-.485-1.016 1.908-.902.719-1.438-1.644-2.011 3.169-7.231 3.013-7.766 1.104-.404 3.028-8.23 2.386-9.148.281-2.278 1.311-2.856 2.161-6.478.611-6.491 6.481-10.245 6.476-10.797 6.825-3.093 10.206-9.201 19.074-8.996.107-.595 3.287-.878 3.599-.72 1.138-2.062 10.676 2.57 11.873 3.595 5.758 2.356 13.656 10.113 14.704 17.659 1.457 3.549 4.02 6.962 5.811 8.615-.753 9.059 4.944 16.993 3.957 26.272-.33 3.14-1.743 7.929-.719 10.077-.038-.252.065-1.245.361-1.08 2.67 1.497 2.039 8.858-1.44 9.718-.68 7.899-3.858 12.121-8.771 16.634-.708-.828-.975-1.021-1.881-1.186-.997.254.762.865.612 1.489-1.278 2.104-2.766 1.564-3.879 3.685-1.325.025-.438-1.862-2.049-1.594 1.191 1.417-.427 1.386-.597 3.203-.276-.211-.555-.419-1.05-.439-.175.709-.01 1.127.638 1.129-1.022 1.375-1.742-1.096-1.181 1.358-1.004-.256-1.296-1.12-1.665-1.929-1.38.289-.911 1.241-1.898 1.304l-.386.333c-.707 1.006-1.747.396-1.182 1.356-1.108.283-.578-.846-.611-1.488-2.319 2.555-1.845 5.775-2.123 9.227-.97-1.232-.516-.154-.267.982-.934.271-1.404.534-2.757 1.651 1.204-1.794-.469-.729-.294-1.626.78-1.936 1.687-3.92.741-5.172-.315 2.535-1.045 4.995-1.708 6.25.042-1.061-.465-1.904.433-3.308-1.53-.089-.734-1.1-1.317-1.568-.187 1.364.106 4.105-1.512 2.341-.912 1.57-.062 2.567-1.694 2.763.287-1.494-.729-1.933-.422-.183-.714-.347-1.345-.47-1.859-.308.506-1.029 1.37-.968.307-1.861-.617 2.093-2.248-.279-3.614 1.429-.645-.326.136-1.213-.896-1.387-.643 1.05-1.336 1.152-1.928.808.076-3.07.461-5.892-1.453-8.343-.083.638.362 1.803-.72 1.441.635-.918-.449-.385-1.079-1.441l-.359-.36c-.98-.138-.443-1.052-1.8-1.438-.423.772-.782 1.616-1.799 1.797.74-2.406-.16.006-1.078-1.44.644.048.841-.358.717-1.079-.493-.014-.789.171-1.078.36-.034-1.824-1.651-1.913-.359-3.238-1.587-.386-.84 1.558-2.159 1.439-3.339-.902-5.402-3.85-7.978-4.891z"/><path d="M36.149 66.484c-.02.676.277.763.719.36.019.659-1.842 1.218-.719 1.799 1.941-2.02 5.141-2.777 7.556-4.319.175-1.134-1.102-.814-.719-2.158.496.016.791-.172 1.08-.361.031 2.995 3.143 2.628 5.758 2.159.768-.791.286-2.835 1.44-3.236 1.295.343 2.3 1.377 2.877 1.439.534 1.728-2.066.331-1.797 1.797 1.986.141 1.972.141 3.959 0-1.82-3.809-8.959-6.273-13.317-3.236-.002-.362.292-.43.361-.722-3.915.371-4.758 3.742-6.777 5.484-.407.351-.421.994-.421.994zM92.471 54.969c-.896-.304-1.926-.471-3.238-.36.202-.737 1.083-.708.36-1.439-6.214-.949-9.915-1.248-14.034 1.439 1.789-.634.234.116 1.079 1.078 5.66-.5 10.32 1.207 14.396-.358-1.047.874 1.108.641 1.437.358-1.494-.048-.072-.236 0-.718zM37.425 54.968c1.043-.303 2.239-.47 3.766-.36-.234-.737-1.26-.708-.419-1.44 7.228-.948 11.531-1.249 16.322 1.44-2.079-.634-.272.117-1.254 1.079-6.583-.501-12.004 1.207-16.743-.36 1.217.875-1.288.642-1.672.36 1.737-.048.084-.236 0-.719z"/><path d="M58.822 60.727c-1.202-.002-1.228 1.168-2.518 1.077-.671-2.303-4.861-4.195-6.839-2.877 4.309.647 9.551 3.256 7.918 7.557.627-.025 1.12.081 1.44.36M75.559 60.727c2.352-.646 4.554-1.446 6.836-2.162-3.198-.196-5.772.227-6.836 2.162zM77.718 62.885c-1.217 1.431-2.565-1.361-3.241.359.751.138 4.335.979 3.241-.359zM78.797 61.082c2.008-1.25 1.855 1.388 2.16 2.882 1.764-.082 2.724.633 4.677.359.693-.748 1.135-1.742 1.798-2.52.369 2.125 3.788 3.475 4.68 2.881-2.601-2.707-8.847-7.284-13.315-3.602zM83.835 94.915c-1.44-.461-1.884-1.361-3.599-.721.086-.998-.718-2.118-.359-1.439-.176.427-.386.817-.722 1.079-.758-1.343-2.205-2.027-3.238-2.16-.494.82.928 1.352 0 1.44-.311-.963-1.334-1.435-1.8-.359-.435-1.8-1.973-1.323-2.879-1.8.078-.402.399-.561.72-.719.202.517.561.878 1.08 1.081-.781-2.213-4.421-1.901-6.478-1.081.626.824-.214 1.359-.36 2.878-1.038-1.045-.85.976-1.798 1.079-.056-.421.062-1.019-.362-1.079.003.199-.29.407-.359 0 .258-.382 1.405-1.658.359-2.159-.917-.341-3.812-3.815-7.196-2.157.438.04.853.105.72.718-5.007 3.749-12.103 5.411-13.675 12.599.635 1.094 1.114-.985 1.438 0-.843.816-.805 2.233-.358 2.875.019-.216.052-.423.358-.358 0 .2.294.408.362 0-.536-.306-.521-1.16-.72-1.8 2.965-.893.205-1.729 2.159-2.519-.354 1.553 1.352 1.047 1.44 2.16-1.639-.565-2.224 2.733-3.241 3.958 1.649.234.268 1.415 1.442 1.798-.731-.175-1.471 1.989-.722 1.081.052-.788.907-.772 1.801-.721.923-2.194 1.925-4.311 3.599-5.757 2.631.716 6.722-.16 10.077-1.437-3.999-.84-7.121.639-11.157-.723 4.441-4.44 11.236-4.011 18.714-5.037.882-.478-.651-1.086.359-1.44 1.311.227-.971 1.816.72 1.44 1.672-.643-.286-3.115.719-3.96-.311 1.392.603 1.556 1.08 2.16.161-1.261 1.152-1.134 1.079-1.8.629.735-.267.708.361 1.441-.461-.019-.5-.46-1.081-.361.391 1.408 2.523 1.075 3.241 2.158.053-.421-.064-1.02.359-1.078.844.111.806 1.112 1.44 1.44.306-1.149-.568-1.114-.72-1.8 1.928 1.194.733-.675 1.08-1.079 1.17.711.597 2.918 2.16 2.159-.393-.085-.865-.591-.361-.72.914.936.243 1.59 1.798 2.159.142-.62-.533-.923 0-1.081-.108.832 1.042.401 1.08 1.081-.085.514-.594.607-.72 1.081 1.899-.173-.837.968.36 1.078 1.434-.502.754-2.162 2.159-1.44.008-.847-.619-1.057-.359-2.158zM82.395 103.192c1.556-.018-.99-3.051.719-2.519-.409-.032-3.752-1.728-5.396.36 3.801-.918 3.805 3.863 6.117 3.237-.478-.36-1.086-.592-1.44-1.078z"/><g fill-rule="nonzero"><path d="M162.989 32.388h21.249v7.868h.262c4.46-6.558 10.711-9.836 18.759-9.836 5.331 0 9.923 1.048 13.773 3.147 3.847 2.099 6.993 4.899 9.444 8.395 2.447 3.498 4.263 7.499 5.444 12.001 1.18 4.506 1.771 9.163 1.771 13.972 0 4.459-.591 8.744-1.771 12.853-1.181 4.112-2.975 7.786-5.378 11.02-2.406 3.235-5.4 5.815-8.985 7.738-3.587 1.922-7.785 2.885-12.592 2.885-8.31 0-14.78-3.101-19.416-9.312h-.262v30.17H162.99V32.388h-.001zm35.152 15.084c-1.487 0-3.039.283-4.655.854-1.62.568-3.082 1.552-4.395 2.95-1.312 1.399-2.405 3.279-3.279 5.641-.875 2.36-1.312 5.291-1.312 8.788 0 5.948.984 10.714 2.953 14.298 1.967 3.586 5.486 5.378 10.559 5.378 2.447 0 4.525-.592 6.231-1.771 1.704-1.181 3.082-2.71 4.132-4.59 1.049-1.88 1.813-3.98 2.296-6.297.479-2.316.721-4.657.721-7.017 0-2.184-.219-4.349-.656-6.492-.439-2.142-1.18-4.088-2.23-5.838a12.855 12.855 0 0 0-4.134-4.263c-1.704-1.093-3.783-1.641-6.231-1.641zM263.388 71.871c.174 4.722 1.575 8.483 4.199 11.28 2.622 2.799 6.295 4.197 11.016 4.197 2.711 0 5.248-.61 7.609-1.836 2.361-1.225 4.066-3.103 5.116-5.64h20.855c-1.049 3.934-2.687 7.324-4.918 10.167-2.231 2.842-4.854 5.181-7.871 7.015-3.016 1.837-6.342 3.194-9.969 4.067a47.237 47.237 0 0 1-11.083 1.311c-5.51 0-10.559-.809-15.15-2.426-4.592-1.617-8.528-3.979-11.804-7.082-3.281-3.104-5.819-6.908-7.61-11.413-1.793-4.501-2.689-9.596-2.689-15.28 0-5.248.96-10.056 2.886-14.43 1.922-4.371 4.567-8.133 7.935-11.28 3.366-3.15 7.28-5.618 11.741-7.412 4.459-1.792 9.181-2.689 14.167-2.689 6.119 0 11.454 1.073 16.002 3.213 4.546 2.144 8.307 5.096 11.281 8.855 2.972 3.761 5.159 8.155 6.559 13.183 1.398 5.029 1.968 10.428 1.705 16.2h-49.977zm27.677-12.462c-.176-3.848-1.487-7.127-3.936-9.838-2.45-2.71-5.553-4.067-9.312-4.067-3.936 0-7.149 1.268-9.641 3.804-2.492 2.536-4.089 5.904-4.788 10.101h27.677zM364.311 46.815h-13.772v30.956c0 2.712.722 4.483 2.165 5.314 1.442.831 3.388 1.245 5.837 1.245.96 0 1.922-.045 2.884-.131a32.423 32.423 0 0 1 2.887-.132v16.397a141.38 141.38 0 0 0-6.1.394 72.683 72.683 0 0 1-6.098.261c-4.724 0-8.638-.393-11.74-1.179-3.105-.788-5.554-2.101-7.345-3.936-1.794-1.836-3.041-4.285-3.739-7.345-.701-3.06-1.049-6.908-1.049-11.544v-30.3H316.96V32.387h11.281V11.791h22.299v20.596h13.772v14.428h-.001zM373.809 32.388h21.643v11.936h.263c1.659-4.371 4.284-7.674 7.871-9.904 3.583-2.23 7.781-3.346 12.592-3.346a26.785 26.785 0 0 1 5.247.526v20.332a34.608 34.608 0 0 0-4.264-.984 26.857 26.857 0 0 0-4.264-.329c-2.798 0-5.226.438-7.279 1.313-2.056.874-3.804 2.054-5.247 3.541a14.166 14.166 0 0 0-3.214 5.181 18.043 18.043 0 0 0-1.049 6.1v33.711h-22.299V32.388zM428.901 32.388h21.643V41.7h.262c2.011-3.411 4.723-6.141 8.133-8.199 3.41-2.052 7.215-3.081 11.411-3.081 4.285 0 8.198.808 11.74 2.425 3.544 1.62 6.231 4.483 8.068 8.591 2.708-3.672 5.771-6.426 9.181-8.263 3.41-1.836 7.431-2.754 12.068-2.754 5.421 0 9.728.918 12.921 2.754 3.192 1.837 5.594 4.197 7.213 7.082 1.616 2.886 2.669 6.057 3.149 9.512s.72 6.799.72 10.034v40.664h-22.296V60.457c0-3.673-.833-6.536-2.494-8.591-1.661-2.054-3.935-3.084-6.82-3.084-2.361 0-4.243.44-5.641 1.313-1.4.875-2.474 2.12-3.213 3.738-.744 1.619-1.203 3.563-1.378 5.837-.177 2.274-.263 4.767-.263 7.479v33.316h-22.299V61.77c0-4.023-.634-7.194-1.902-9.512-1.267-2.316-3.432-3.477-6.493-3.477-4.024 0-6.93 1.358-8.724 4.067-1.793 2.712-2.687 7.522-2.687 14.43v33.186h-22.299V32.388zM546.301 53.374c.174-4.459 1.224-8.174 3.15-11.148a21.457 21.457 0 0 1 7.476-7.085c3.058-1.747 6.449-2.97 10.166-3.672a61.947 61.947 0 0 1 11.478-1.049c4.021 0 7.935.284 11.737.853 3.806.569 7.194 1.684 10.166 3.344 2.973 1.663 5.356 3.981 7.149 6.953 1.794 2.974 2.691 6.865 2.691 11.672v47.224h-21.118v-6.428c-2.887 3.062-6.319 5.229-10.298 6.492a39.713 39.713 0 0 1-12.131 1.902c-3.238 0-6.278-.415-9.118-1.245-2.844-.829-5.313-2.098-7.412-3.803-2.1-1.705-3.738-3.847-4.918-6.429-1.182-2.578-1.77-5.617-1.77-9.115 0-3.672.609-6.733 1.834-9.182 1.223-2.447 2.887-4.46 4.985-6.034 2.1-1.575 4.503-2.796 7.215-3.672a64.537 64.537 0 0 1 8.461-2.1c2.928-.524 5.857-.96 8.788-1.311 2.928-.349 5.707-.787 8.33-1.311 1.922-.438 3.389-1.07 4.392-1.902 1.006-.831 1.509-2.295 1.509-4.394 0-1.312-.349-2.405-1.048-3.28a8.55 8.55 0 0 0-2.625-2.165 12.639 12.639 0 0 0-3.476-1.245 17.787 17.787 0 0 0-3.607-.394c-6.384 0-10.099 2.842-11.148 8.526h-20.858v-.002zm19.547 27.547c0 2.798.919 4.787 2.753 5.967 1.837 1.18 4.021 1.771 6.56 1.771 5.33 0 9.006-1.574 11.018-4.722 2.01-3.149 2.884-8.265 2.621-15.347-1.572.962-3.651 1.64-6.23 2.033-2.58.393-5.096.94-7.542 1.641-2.539.611-4.704 1.53-6.494 2.754-1.793 1.225-2.686 3.194-2.686 5.903zM675.23 53.374c.174-4.459 1.223-8.174 3.15-11.148a21.448 21.448 0 0 1 7.476-7.085c3.058-1.747 6.448-2.97 10.165-3.672a61.955 61.955 0 0 1 11.478-1.049c4.022 0 7.936.284 11.739.853 3.804.569 7.193 1.684 10.165 3.344 2.973 1.663 5.356 3.981 7.149 6.953 1.793 2.974 2.69 6.865 2.69 11.672v47.224h-21.117v-6.428c-2.887 3.062-6.319 5.229-10.299 6.492a39.702 39.702 0 0 1-12.13 1.902c-3.239 0-6.278-.415-9.117-1.245-2.845-.829-5.315-2.098-7.413-3.803-2.1-1.705-3.739-3.847-4.918-6.429-1.182-2.578-1.771-5.617-1.771-9.115 0-3.672.609-6.733 1.835-9.182 1.223-2.447 2.887-4.46 4.984-6.034 2.1-1.575 4.503-2.796 7.216-3.672a64.483 64.483 0 0 1 8.46-2.1c2.928-.524 5.857-.96 8.788-1.311 2.928-.349 5.707-.787 8.33-1.311 1.922-.438 3.389-1.07 4.392-1.902 1.005-.831 1.509-2.295 1.509-4.394 0-1.312-.349-2.405-1.048-3.28a8.55 8.55 0 0 0-2.625-2.165 12.639 12.639 0 0 0-3.476-1.245 17.771 17.771 0 0 0-3.607-.394c-6.385 0-10.099 2.842-11.148 8.526H675.23v-.002zm19.545 27.547c0 2.798.92 4.787 2.754 5.967 1.837 1.18 4.022 1.771 6.56 1.771 5.33 0 9.006-1.574 11.018-4.722 2.01-3.149 2.884-8.265 2.621-15.347-1.573.962-3.65 1.64-6.23 2.033-2.58.393-5.096.94-7.542 1.641-2.539.611-4.704 1.53-6.494 2.754-1.792 1.225-2.687 3.194-2.687 5.903zM620.76 32.388h21.643v11.936h.263c1.659-4.371 4.282-7.674 7.869-9.904 3.585-2.23 7.783-3.346 12.594-3.346a26.879 26.879 0 0 1 5.247.526v20.332a34.593 34.593 0 0 0-4.266-.984 26.813 26.813 0 0 0-4.262-.329c-2.8 0-5.227.438-7.279 1.313-2.056.874-3.805 2.054-5.248 3.541a14.18 14.18 0 0 0-3.214 5.181 18.066 18.066 0 0 0-1.048 6.1v33.711H620.76V32.388z"/></g></svg>